# xmcd
#
# Track frame offsets:
#	150
#	18370
#	33460
#	43950
#	61777
#	74855
#	86662
#	94050
#	110825
#	126237
#	145107
#	152960
#	160237
#	174245
#	194330
#	201242
#	216030
#	226482
#	234340
#	241062
#	250457
#	264190
#	278275
#	287230
#	299790
#
# Disc length: 4175 seconds
#
# Revision: 1
# Processed by: cddbd v1.4PL0 Copyright (c) Steve Scherf et al.
# Submitted via: audiograbber 1.81.02
#
DISCID=79104d19
DTITLE=Various Acoustic - Fingerpicking Guitar Delights
DYEAR=1992
DGENRE=Acoustic
TTITLE0=Allegheny County
TTITLE1=Golliwog's Cakewalk
TTITLE2=Jessica
TTITLE3=Ragtime Nightingale
TTITLE4=By A Waterfall
TTITLE5=Back Home in Indiana
TTITLE6=Cold Feet
TTITLE7=Hilarity Rag
TTITLE8=Hick's Farewell
TTITLE9=Heliotrope Bouquet
TTITLE10=T.N.T.
TTITLE11=Mardi Gras Dance
TTITLE12=Creole Belles - March and Two Step
TTITLE13=Manya Berserka
TTITLE14=Grey Hills
TTITLE15=Cataract Rag
TTITLE16=The Jackson Stomp
TTITLE17=Light and Butter
TTITLE18=Original Dixieland One-Step
TTITLE19=Ugly Duckling
TTITLE20=You Took Advantage of Me
TTITLE21=Chromatic Rag
TTITLE22=No Love
TTITLE23=R.A.F. Shuffle
TTITLE24=Jolymont
EXTD=
EXTT0=
EXTT1=
EXTT2=
EXTT3=
EXTT4=
EXTT5=
EXTT6=
EXTT7=
EXTT8=
EXTT9=
EXTT10=
EXTT11=
EXTT12=
EXTT13=
EXTT14=
EXTT15=
EXTT16=
EXTT17=
EXTT18=
EXTT19=
EXTT20=
EXTT21=
EXTT22=
EXTT23=
EXTT24=
PLAYORDER=
